<svg xmlns="http://www.w3.org/2000/svg" xmlns:xlink="http://www.w3.org/1999/xlink" viewBox="0 0 198 107" width="198" height="107" preserveAspectRatio="xMidYMid meet" style="width: 100%; height: 100%; transform: translate3d(0px, 0px, 0px); content-visibility: visible;"><defs><clipPath id="__lottie_element_2"><rect width="198" height="107" x="0" y="0"></rect></clipPath></defs><g clip-path="url(#__lottie_element_2)"><g transform="matrix(1.333299994468689,0,0,1.333299994468689,0,0)" opacity="1" style="display: block;"><g opacity="1" transform="matrix(1,0,0,1,0,0)"><g opacity="1" transform="matrix(1,0,0,1,0,0)"><g opacity="1" transform="matrix(1,0,0,1,0,0)"><g opacity="1" transform="matrix(0.75,0,0,0.75,0,0)"><path stroke-linecap="round" stroke-linejoin="round" fill-opacity="0" stroke="rgb(0,0,0)" stroke-opacity="1" stroke-width="1" d=" M86.30999755859375,20.149999618530273 C87.02999877929688,21.610000610351562 87.26000213623047,22.309999465942383 87.80000305175781,23.510000228881836 C88.33999633789062,24.709999084472656 88.66999816894531,25.459999084472656 88.80999755859375,25.770000457763672 C88.94999694824219,26.079999923706055 89.19999694824219,26.719999313354492 89.58000183105469,27.690000534057617 C89.97000122070312,28.649999618530273 90.2699966430664,29.440000534057617 90.48999786376953,30.020000457763672 C90.70999908447266,30.610000610351562 91.19999694824219,32.36000061035156 91.94999694824219,35.279998779296875 C92.69999694824219,38.189998626708984 93.22000122070312,40.529998779296875 93.51000213623047,42.27000045776367 C93.80000305175781,44.0099983215332 93.98999786376953,45.33000183105469 94.0999984741211,46.2400016784668 C94.20999908447266,47.150001525878906 94.30000305175781,48.099998474121094 94.37999725341797,49.09000015258789 C94.45999908447266,50.08000183105469 94.52999877929688,51.18000030517578 94.5999984741211,52.400001525878906 C94.63099670410156,52.93199920654297 94.65799713134766,53.402000427246094 94.68099975585938,53.808998107910156 M77.47000122070312,35.29999923706055 C78.01000213623047,36.04999923706055 78.56999969482422,36.90999984741211 79.16000366210938,37.869998931884766 C79.16000366210938,37.869998931884766 79.16000366210938,37.880001068115234 79.16000366210938,37.880001068115234 C79.80000305175781,38.93000030517578 80.38999938964844,40 80.94000244140625,41.099998474121094 C81.55999755859375,42.33000183105469 82.12000274658203,43.599998474121094 82.63999938964844,44.880001068115234 C83.18000030517578,46.209999084472656 83.81999969482422,48.18000030517578 84.55000305175781,50.79999923706055 C85.27999877929688,53.41999816894531 85.79000091552734,55.29999923706055 86.02999877929688,56.45000076293945 C86.06199645996094,56.597999572753906 86.09300231933594,56.73899841308594 86.12200164794922,56.874000549316406"></path></g><g opacity="1" transform="matrix(0.75,0,0,0.75,0,0)"><path stroke-linecap="round" stroke-linejoin="round" fill-opacity="0" stroke="rgb(0,0,0)" stroke-opacity="1" stroke-width="1" d=" M111.87999725341797,28.799999237060547 C111.31999969482422,31.15999984741211 109.05999755859375,37.66999816894531 108.83999633789062,38.970001220703125 C108.68000030517578,39.88999938964844 108.5199966430664,40.810001373291016 108.37999725341797,41.72999954223633 C108.30000305175781,42.27000045776367 108.16999816894531,43.290000915527344 107.98999786376953,44.790000915527344 C107.8239974975586,46.172000885009766 107.63300323486328,49.79399871826172 107.4010009765625,55.67900085449219"></path></g><g opacity="1" transform="matrix(0.75,0,0,0.75,0,0)"><path stroke-linecap="round" stroke-linejoin="round" fill-opacity="0" stroke="rgb(0,0,0)" stroke-opacity="1" stroke-width="1" d=" M123.0199966430664,46.119998931884766 C120.6520004272461,52.84199905395508 115.10199737548828,52.676998138427734 114.07599639892578,57.78300094604492"></path></g></g></g><g opacity="1" transform="matrix(0.75,0,0,0.75,0,0)"><path stroke-linecap="round" stroke-linejoin="round" fill-opacity="0" stroke="rgb(15,204,206)" stroke-opacity="1" stroke-width="2.76" d=" M84.31999969482422,79.38999938964844 C84.0199966430664,79.52999877929688 84.66000366210938,79.26000213623047 84.31999969482422,79.5 C84.01000213623047,79.69999694824219 83.72000122070312,79.93000030517578 83.45999908447266,80.19999694824219 C83.29000091552734,80.37000274658203 83.13999938964844,80.54000091552734 82.98999786376953,80.72000122070312 C82.9000015258789,80.83000183105469 82.69999694824219,81.16999816894531 82.38999938964844,81.73999786376953 C82.08000183105469,82.30999755859375 81.83999633789062,82.80000305175781 81.69000244140625,83.20999908447266 C81.54000091552734,83.62000274658203 81.37000274658203,84.12000274658203 81.18000030517578,84.68000030517578 C81.18000030517578,84.68000030517578 81.18000030517578,84.68000030517578 81.18000030517578,84.68000030517578 C81.04000091552734,85.13999938964844 80.87000274658203,85.58999633789062 80.68000030517578,86.02999877929688 C80.5199966430664,86.36000061035156 80.38999938964844,86.62999725341797 80.29000091552734,86.81999969482422 C80.29000091552734,86.81999969482422 80.27999877929688,86.81999969482422 80.27999877929688,86.81999969482422 C80.1500015258789,87.05000305175781 80.01000213623047,87.27999877929688 79.86000061035156,87.48999786376953 C79.72000122070312,87.69999694824219 79.58000183105469,87.88999938964844 79.41999816894531,88.08000183105469 C79.27999877929688,88.2300033569336 79.13999938964844,88.37000274658203 78.98999786376953,88.51000213623047 C78.98999786376953,88.51000213623047 78.69000244140625,88.80000305175781 78.69000244140625,88.80000305175781 C78.63999938964844,88.8499984741211 78.51000213623047,88.94999694824219 78.31999969482422,89.0999984741211 C78.12999725341797,89.25 77.93000030517578,89.4000015258789 77.7300033569336,89.5199966430664 C77.62999725341797,89.58000183105469 77.52999877929688,89.63999938964844 77.43000030517578,89.69999694824219 C77.2490005493164,89.8010025024414 77.06199645996094,89.89800262451172 76.875,89.98899841308594 M121.48999786376953,79.23999786376953 C121.48999786376953,79.23999786376953 120.97000122070312,79.4800033569336 120.97000122070312,79.4800033569336 C120.97000122070312,79.4800033569336 120.81999969482422,79.55999755859375 120.81999969482422,79.55999755859375 C120.81999969482422,79.55999755859375 120.81999969482422,79.55000305175781 120.81999969482422,79.55000305175781 C120.41000366210938,79.80999755859375 120.04000091552734,80.12999725341797 119.72000122070312,80.48999786376953 C119.44999694824219,80.77999877929688 119.2300033569336,81.05999755859375 119.05000305175781,81.3499984741211 C118.87000274658203,81.63999938964844 118.75,81.8499984741211 118.68000030517578,81.98999786376953 C118.61000061035156,82.12999725341797 118.44999694824219,82.55000305175781 118.20999908447266,83.25 C118.20999908447266,83.25 118.19999694824219,83.26000213623047 118.19999694824219,83.26000213623047 C117.98999786376953,83.8499984741211 117.80999755859375,84.45999908447266 117.66000366210938,85.06999969482422 C117.54000091552734,85.58000183105469 117.41999816894531,86.18000030517578 117.2699966430664,86.87999725341797 C117.12000274658203,87.58000183105469 116.9800033569336,88.12999725341797 116.86000061035156,88.54000091552734 C116.7699966430664,88.87000274658203 116.66999816894531,89.19000244140625 116.55999755859375,89.51000213623047 C116.37000274658203,90.04000091552734 116.13999938964844,90.55999755859375 115.87999725341797,91.05999755859375 C115.77999877929688,91.23999786376953 115.66000366210938,91.41999816894531 115.55000305175781,91.58999633789062 C115.55000305175781,91.58999633789062 115.30999755859375,91.94999694824219 115.30999755859375,91.94999694824219 C115.30999755859375,91.94999694824219 115.30999755859375,91.94999694824219 115.30999755859375,91.94999694824219 C115.22000122070312,92.08000183105469 115.12000274658203,92.20999908447266 115.0199966430664,92.33000183105469 C114.86000061035156,92.5199966430664 114.70999908447266,92.68000030517578 114.55999755859375,92.83000183105469 C114.55999755859375,92.83000183105469 114.31999969482422,93.06999969482422 114.31999969482422,93.06999969482422 C114.31999969482422,93.06999969482422 114.31999969482422,93.05999755859375 114.31999969482422,93.05999755859375 C114.27400207519531,93.10600280761719 114.2229995727539,93.1520004272461 114.1709976196289,93.19599914550781"></path></g><g opacity="1" transform="matrix(1,0,0,1,0,0)"><g opacity="1" transform="matrix(0.75,0,0,0.75,0,0)"><path stroke-linecap="round" stroke-linejoin="round" fill-opacity="0" stroke="rgb(0,0,0)" stroke-opacity="1" stroke-width="1.8" d=" M65.29000091552734,94.36000061035156 C65.29000091552734,94.36000061035156 88.89399719238281,102.4219970703125 96.81400299072266,105.12699890136719 M65.38999938964844,72.19999694824219 C65.38999938964844,72.19999694824219 65.08499908447266,87.44400024414062 64.98300170898438,92.55899810791016 M65.62000274658203,56.61000061035156 C65.62000274658203,56.61000061035156 58.53499984741211,64.47799682617188 56.15700149536133,67.11799621582031 M55.34000015258789,68.02999877929688 C55.34000015258789,68.02999877929688 78.16100311279297,76.40399932861328 85.81900024414062,79.21299743652344 M100.19000244140625,68.2300033569336 C100.19000244140625,68.2300033569336 92.01000213623047,76.33300018310547 89.26599884033203,79.0530014038086 M65.63999938964844,56.36000061035156 C65.63999938964844,56.36000061035156 89.63899993896484,64.58799743652344 97.69100189208984,67.3489990234375 M99.0999984741211,44.880001068115234 C99.0999984741211,44.880001068115234 75.9260025024414,52.893001556396484 68.14900207519531,55.582000732421875 M99.5,45.2400016784668 C99.5,45.2400016784668 99.5,54.98500061035156 99.5,58.255001068115234 M132.91000366210938,56.43000030517578 C132.91000366210938,56.43000030517578 109.56900024414062,48.49300003051758 101.73699951171875,45.82899856567383 M133.74000549316406,56.84000015258789 C133.74000549316406,56.84000015258789 140.95700073242188,64.61100006103516 143.37899780273438,67.21800231933594 M110.86000061035156,80.20999908447266 C110.86000061035156,80.20999908447266 133.50799560546875,71.91999816894531 141.10800170898438,69.13800048828125 M100.18000030517578,68.80000305175781 C100.18000030517578,68.80000305175781 107.43199920654297,76.50900268554688 109.86499786376953,79.09500122070312 M133.32000732421875,94.37000274658203 C133.32000732421875,94.37000274658203 109.90299987792969,102.36299896240234 102.0459976196289,105.04499816894531 M133.61000061035156,71.88999938964844 C133.61000061035156,71.88999938964844 133.4709930419922,87.25900268554688 133.4250030517578,92.41600036621094 M99.7699966430664,68.2699966430664 C99.7699966430664,68.2699966430664 99.39600372314453,93.58399963378906 99.27100372314453,102.0790023803711 M133.16000366210938,56.540000915527344 C133.16000366210938,56.540000915527344 109.88899993896484,64.76100158691406 102.08000183105469,67.5199966430664"></path></g></g><g opacity="1" transform="matrix(0.75,0,0,0.75,0,0)"><path stroke-linecap="round" stroke-linejoin="round" fill-opacity="0" stroke="rgb(0,0,0)" stroke-opacity="1" stroke-width="1.4" d=" M124.87000274658203,33.5099983215332 C124.87000274658203,33.5099983215332 124.86000061035156,33.5099983215332 124.86000061035156,33.5099983215332 C124.7300033569336,33.4900016784668 124.61000061035156,33.470001220703125 124.47000122070312,33.45000076293945 C124.18000030517578,33.40999984741211 123.9000015258789,33.380001068115234 123.61000061035156,33.349998474121094 C123.38999938964844,33.31999969482422 123.16000366210938,33.310001373291016 122.94000244140625,33.290000915527344 C122.93000030517578,33.290000915527344 122.79000091552734,33.27000045776367 122.51000213623047,33.22999954223633 C122.51000213623047,33.22999954223633 122.50700378417969,33.22999954223633 122.5009994506836,33.229000091552734 M126.08000183105469,29.84000015258789 C126.08000183105469,29.84000015258789 125.72000122070312,31.15999984741211 125.72000122070312,31.15999984741211 C125.54000091552734,31.84000015258789 125.36000061035156,32.5099983215332 125.18000030517578,33.189998626708984 C125.16799926757812,33.23500061035156 125.15599822998047,33.27199935913086 125.1449966430664,33.301998138427734 M127.04000091552734,46.7599983215332 C127.04000091552734,46.7599983215332 126.8499984741211,46.709999084472656 126.8499984741211,46.709999084472656 C126.8499984741211,46.709999084472656 126.8499984741211,46.720001220703125 126.8499984741211,46.720001220703125 C126.47000122070312,46.650001525878906 126.0999984741211,46.56999969482422 125.72000122070312,46.5099983215332 C125.72000122070312,46.5099983215332 124.83999633789062,46.349998474121094 124.83999633789062,46.349998474121094 C124.41999816894531,46.279998779296875 124.13999938964844,46.2400016784668 123.98999786376953,46.209999084472656 C123.98999786376953,46.209999084472656 123.98999786376953,46.209999084472656 123.98999786376953,46.209999084472656 C123.91000366210938,46.189998626708984 123.81999969482422,46.189998626708984 123.7300033569336,46.16999816894531 C123.1500015258789,46.09000015258789 122.56999969482422,45.9900016784668 121.98999786376953,45.88999938964844 C121.68000030517578,45.83000183105469 121.37999725341797,45.779998779296875 121.06999969482422,45.720001220703125 C120.98999786376953,45.70000076293945 120.91000366210938,45.70000076293945 120.83000183105469,45.68000030517578 C120.73100280761719,45.659000396728516 120.63800048828125,45.643001556396484 120.54499816894531,45.624000549316406 M134.02999877929688,29.84000015258789 C133.99000549316406,29.93000030517578 133.85000610351562,30.040000915527344 133.6199951171875,30.68000030517578 C133.6199951171875,30.68000030517578 133.6199951171875,30.670000076293945 133.6199951171875,30.670000076293945 C133.32000732421875,31.479999542236328 133.02000427246094,32.290000915527344 132.72000122070312,33.09000015258789 C132.72000122070312,33.09000015258789 132.41000366210938,33.90999984741211 132.41000366210938,33.90999984741211 C132.41000366210938,33.90999984741211 131.97999572753906,35.029998779296875 131.97999572753906,35.029998779296875 C131.97999572753906,35.029998779296875 131.58999633789062,36.060001373291016 131.58999633789062,36.060001373291016 C131.58999633789062,36.060001373291016 131.0399932861328,37.470001220703125 131.0399932861328,37.470001220703125 C130.75999450683594,38.18000030517578 130.5500030517578,38.709999084472656 130.4199981689453,39.040000915527344 C130.4199981689453,39.040000915527344 130.1300048828125,39.77000045776367 130.1300048828125,39.77000045776367 C130.1300048828125,39.77000045776367 129.7100067138672,40.81999969482422 129.7100067138672,40.81999969482422 C129.25,41.959999084472656 128.77999877929688,43.09000015258789 128.30999755859375,44.22999954223633 C128.25,44.380001068115234 128.17999267578125,44.529998779296875 128.1199951171875,44.68000030517578 C128.1199951171875,44.68000030517578 127.7699966430664,45.540000915527344 127.7699966430664,45.540000915527344 C127.75299835205078,45.58300018310547 127.73600006103516,45.625999450683594 127.71900177001953,45.66899871826172 M122.20999908447266,33.220001220703125 C122.20999908447266,33.220001220703125 122.20999908447266,33.220001220703125 122.20999908447266,33.220001220703125 C122.12000274658203,33.72999954223633 122.02999877929688,34.22999954223633 121.93000030517578,34.7400016784668 C121.93000030517578,34.7400016784668 121.77999877929688,35.4900016784668 121.77999877929688,35.4900016784668 C121.77999877929688,35.4900016784668 121.58999633789062,36.4900016784668 121.58999633789062,36.4900016784668 C121.58999633789062,36.4900016784668 121.33999633789062,37.779998779296875 121.33999633789062,37.779998779296875 C121.33999633789062,37.779998779296875 121.08000183105469,39.119998931884766 121.08000183105469,39.119998931884766 C121.08000183105469,39.119998931884766 121.06999969482422,39.11000061035156 121.06999969482422,39.11000061035156 C120.87000274658203,40.08000183105469 120.66999816894531,41.06999969482422 120.45999908447266,42.04999923706055 C120.4000015258789,42.34000015258789 120.3499984741211,42.56999969482422 120.31999969482422,42.72999954223633 C120.31999969482422,42.72999954223633 120.26000213623047,43.02000045776367 120.26000213623047,43.02000045776367 C120.26000213623047,43.02000045776367 120.20999908447266,43.2599983215332 120.20999908447266,43.2599983215332 C120.20999908447266,43.2599983215332 120.06999969482422,43.91999816894531 120.06999969482422,43.91999816894531 C120.06999969482422,43.91999816894531 119.92900085449219,44.56700134277344 119.91999816894531,44.608001708984375 M125.98999786376953,29.239999771118164 C125.98999786376953,29.239999771118164 125.98999786376953,29.239999771118164 125.98999786376953,29.239999771118164 C125.94000244140625,29.280000686645508 125.88999938964844,29.34000015258789 125.83999633789062,29.3799991607666 C125.83999633789062,29.3799991607666 125.81999969482422,29.389999389648438 125.81999969482422,29.389999389648438 C125.80999755859375,29.399999618530273 125.70999908447266,29.5 125.51000213623047,29.700000762939453 C125.30999755859375,29.899999618530273 125.05000305175781,30.149999618530273 124.75,30.459999084472656 C124.38999938964844,30.829999923706055 124.0199966430664,31.200000762939453 123.66000366210938,31.56999969482422 C123.66000366210938,31.56999969482422 123.4800033569336,31.739999771118164 123.4800033569336,31.739999771118164 C123.4800033569336,31.739999771118164 123.18000030517578,32.04999923706055 123.18000030517578,32.04999923706055 C123.06999969482422,32.15999984741211 122.97000122070312,32.27000045776367 122.87000274658203,32.36000061035156 C122.87000274658203,32.36000061035156 122.58000183105469,32.650001525878906 122.58000183105469,32.650001525878906 C122.56999969482422,32.65999984741211 122.55899810791016,32.67100143432617 122.54900360107422,32.680999755859375 M133.8300018310547,29.799999237060547 C133.8300018310547,29.799999237060547 133.6199951171875,29.780000686645508 133.6199951171875,29.780000686645508 C133.6199951171875,29.780000686645508 133.6199951171875,29.780000686645508 133.6199951171875,29.780000686645508 C133.30999755859375,29.75 132.99000549316406,29.739999771118164 132.67999267578125,29.709999084472656 C132.3699951171875,29.690000534057617 132.0500030517578,29.670000076293945 131.74000549316406,29.639999389648438 C131.4499969482422,29.6200008392334 131.0800018310547,29.59000015258789 130.6300048828125,29.559999465942383 C130.17999267578125,29.530000686645508 129.8800048828125,29.5 129.72000122070312,29.489999771118164 C129.32000732421875,29.459999084472656 128.9199981689453,29.440000534057617 128.52000427246094,29.40999984741211 C128.22999572753906,29.389999389648438 127.93000030517578,29.360000610351562 127.62999725341797,29.34000015258789 C127.30999755859375,29.309999465942383 126.98999786376953,29.299999237060547 126.66999816894531,29.270000457763672 C126.6449966430664,29.26799964904785 126.62000274658203,29.266000747680664 126.59600067138672,29.263999938964844"></path></g><g opacity="1" transform="matrix(0.75,0,0,0.75,0,0)"><path stroke-linecap="round" stroke-linejoin="round" fill-opacity="0" stroke="rgb(0,0,0)" stroke-opacity="1" stroke-width="0.7" d=" M127.91000366210938,37.810001373291016 C127.87000274658203,37.77000045776367 127.81999969482422,37.72999954223633 127.76000213623047,37.709999084472656 C127.73999786376953,37.709999084472656 127.70999908447266,37.709999084472656 127.69000244140625,37.709999084472656 C127.63999938964844,37.709999084472656 127.58999633789062,37.709999084472656 127.54000091552734,37.720001220703125 C127.44999694824219,37.7400016784668 127.37000274658203,37.77000045776367 127.29000091552734,37.810001373291016 C127.16999816894531,37.869998931884766 127.05999755859375,37.959999084472656 126.9800033569336,38.060001373291016 C126.9000015258789,38.150001525878906 126.81999969482422,38.2599983215332 126.7699966430664,38.369998931884766 C126.7300033569336,38.470001220703125 126.70999908447266,38.58000183105469 126.72000122070312,38.689998626708984 C126.7300033569336,38.900001525878906 126.83999633789062,39.09000015258789 127.0199966430664,39.189998626708984 C127.11000061035156,39.25 127.26000213623047,39.279998779296875 127.47000122070312,39.290000915527344 C127.572998046875,39.29499816894531 127.66799926757812,39.297000885009766 127.75700378417969,39.29600143432617 M124.4000015258789,37.529998779296875 C124.41000366210938,37.52000045776367 124.44000244140625,37.5 124.51000213623047,37.45000076293945 C124.5199966430664,37.45000076293945 124.54000091552734,37.540000915527344 124.58999633789062,37.72999954223633 C124.63999938964844,37.91999816894531 124.80999755859375,38.349998474121094 125.08000183105469,39.02000045776367 C125.13999938964844,39.0099983215332 125.26000213623047,38.939998626708984 125.44000244140625,38.81999969482422 C125.62000274658203,38.70000076293945 125.7699966430664,38.54999923706055 125.91000366210938,38.380001068115234 C126.03099822998047,38.2239990234375 126.17400360107422,38.03200149536133 126.33399963378906,37.801998138427734 M124.05000305175781,36.900001525878906 C124.04000091552734,36.88999938964844 124.0199966430664,36.849998474121094 123.98999786376953,36.779998779296875 C123.9800033569336,36.72999954223633 123.97000122070312,36.689998626708984 123.94999694824219,36.63999938964844 C123.93000030517578,36.619998931884766 123.91000366210938,36.599998474121094 123.88999938964844,36.59000015258789 C123.8499984741211,36.56999969482422 123.80999755859375,36.54999923706055 123.7699966430664,36.540000915527344 C123.72000122070312,36.52000045776367 123.66000366210938,36.52000045776367 123.61000061035156,36.52000045776367 C123.52999877929688,36.529998779296875 123.44999694824219,36.540000915527344 123.37999725341797,36.56999969482422 C123.27999877929688,36.619998931884766 123.18000030517578,36.689998626708984 123.11000061035156,36.779998779296875 C123.02999877929688,36.880001068115234 123,36.959999084472656 123.01000213623047,37.029998779296875 C123.0199966430664,37.09000015258789 123.04000091552734,37.209999084472656 123.0999984741211,37.369998931884766 C123.16000366210938,37.540000915527344 123.20999908447266,37.68000030517578 123.23999786376953,37.779998779296875 C123.33000183105469,38.04999923706055 123.37000274658203,38.31999969482422 123.31999969482422,38.599998474121094 C123.30000305175781,38.68000030517578 123.26000213623047,38.7599983215332 123.22000122070312,38.83000183105469 C123.16000366210938,38.91999816894531 123.08000183105469,39 122.98999786376953,39.04999923706055 C122.93699645996094,39.08300018310547 122.87899780273438,39.11199951171875 122.81999969482422,39.13399887084961"></path></g><g opacity="1" transform="matrix(0.75,0,0,0.75,0,0)"><path stroke-linecap="round" stroke-linejoin="round" fill-opacity="0" stroke="rgb(0,0,0)" stroke-opacity="1" stroke-width="0.7" d=" M127.70999908447266,38.72999954223633 C127.70999908447266,38.72999954223633 127.81999969482422,38.72999954223633 127.81999969482422,38.72999954223633 C127.87999725341797,38.72999954223633 127.93000030517578,38.75 127.9800033569336,38.77000045776367 C128.02999877929688,38.79999923706055 128.05999755859375,38.810001373291016 128.0800018310547,38.83000183105469 C128.10000610351562,38.849998474121094 128.1199951171875,38.869998931884766 128.1300048828125,38.88999938964844 C128.13999938964844,38.91999816894531 128.14999389648438,38.939998626708984 128.16000366210938,38.970001220703125 C128.16000366210938,38.970001220703125 128.1699981689453,39.060001373291016 128.1699981689453,39.060001373291016 C128.17999267578125,39.09000015258789 128.1699981689453,39.15999984741211 128.16000366210938,39.279998779296875 C128.14999389648438,39.400001525878906 128.0500030517578,39.900001525878906 127.86000061035156,40.779998779296875 C127.86399841308594,40.78900146484375 127.86499786376953,40.80799865722656 127.86299896240234,40.840999603271484"></path></g><g opacity="1" transform="matrix(0.75,0,0,0.75,0,0)"><path stroke-linecap="round" stroke-linejoin="round" fill-opacity="0" stroke="rgb(0,0,0)" stroke-opacity="1" stroke-width="1.4" d=" M81.12000274658203,2 C81.05999755859375,2.0199999809265137 81.01000213623047,2.0199999809265137 80.94999694824219,2.0399999618530273 C80.94999694824219,2.0399999618530273 80.73999786376953,2.0899999141693115 80.73999786376953,2.0899999141693115 C80.73999786376953,2.0899999141693115 80.52999877929688,2.1500000953674316 80.52999877929688,2.1500000953674316 C80.20999908447266,2.2200000286102295 79.88999938964844,2.299999952316284 79.58000183105469,2.380000114440918 C79.58000183105469,2.380000114440918 78.81999969482422,2.559999942779541 78.81999969482422,2.559999942779541 C78.81999969482422,2.559999942779541 78.80999755859375,2.559999942779541 78.80999755859375,2.559999942779541 C76.98999786376953,3.009999990463257 75.16000366210938,3.4600000381469727 73.33999633789062,3.9200000762939453 C73.33999633789062,3.9200000762939453 73.12000274658203,3.9700000286102295 73.12000274658203,3.9700000286102295 C72.98100280761719,3.999000072479248 72.84100341796875,4.033999919891357 72.7020034790039,4.070000171661377 M80.81999969482422,21.65999984741211 C80.81999969482422,21.65999984741211 80.62000274658203,21.280000686645508 80.62000274658203,21.280000686645508 C80.62000274658203,21.280000686645508 80.62000274658203,21.290000915527344 80.62000274658203,21.290000915527344 C80.47000122070312,21.020000457763672 80.33000183105469,20.75 80.18000030517578,20.479999542236328 C80.18000030517578,20.479999542236328 79.58000183105469,19.3799991607666 79.58000183105469,19.3799991607666 C79.58000183105469,19.3799991607666 79.18000030517578,18.639999389648438 79.18000030517578,18.639999389648438 C79.18000030517578,18.639999389648438 78.63999938964844,17.649999618530273 78.63999938964844,17.649999618530273 C78.63999938964844,17.649999618530273 77.9800033569336,16.40999984741211 77.9800033569336,16.40999984741211 C77.77999877929688,16.020000457763672 77.58999633789062,15.65999984741211 77.41000366210938,15.3100004196167 C77.41000366210938,15.3100004196167 77.41000366210938,15.3100004196167 77.41000366210938,15.3100004196167 C76.87000274658203,14.279999732971191 76.33999633789062,13.239999771118164 75.80999755859375,12.199999809265137 C75.45999908447266,11.5 75.11000061035156,10.789999961853027 74.76000213623047,10.079999923706055 C74.37000274658203,9.300000190734863 73.98999786376953,8.520000457763672 73.61000061035156,7.730000019073486 C73.61000061035156,7.730000019073486 73.05999755859375,6.599999904632568 73.05999755859375,6.599999904632568 C73.05999755859375,6.599999904632568 73.05999755859375,6.599999904632568 73.05999755859375,6.599999904632568 C72.88400268554688,6.248000144958496 72.70800018310547,5.888000011444092 72.54000091552734,5.534999847412109 M90.12000274658203,18.65999984741211 C90.12000274658203,18.65999984741211 90.11000061035156,18.65999984741211 90.11000061035156,18.65999984741211 C89.54000091552734,18.860000610351562 88.95999908447266,19.06999969482422 88.38999938964844,19.270000457763672 C87.54000091552734,19.579999923706055 86.68000030517578,19.8700008392334 85.83000183105469,20.170000076293945 C85.69999694824219,20.219999313354492 85.38999938964844,20.31999969482422 84.91000366210938,20.489999771118164 C84.3499984741211,20.690000534057617 83.79000091552734,20.8799991607666 83.2300033569336,21.079999923706055 C83.02999877929688,21.149999618530273 82.81999969482422,21.219999313354492 82.62000274658203,21.290000915527344 C82.62000274658203,21.290000915527344 81.9520034790039,21.513999938964844 81.6050033569336,21.631000518798828 M85.95999908447266,5.260000228881836 C85.95999908447266,5.260000228881836 86,5.369999885559082 86,5.369999885559082 C86,5.369999885559082 85.98999786376953,5.360000133514404 85.98999786376953,5.360000133514404 C86.4000015258789,6.699999809265137 86.80999755859375,8.050000190734863 87.22000122070312,9.390000343322754 C87.44999694824219,10.180000305175781 87.70999908447266,10.949999809265137 87.94999694824219,11.739999771118164 C88.29000091552734,12.84000015258789 88.63999938964844,13.960000038146973 88.98999786376953,15.0600004196167 C89.1500015258789,15.550000190734863 89.30000305175781,16.049999237060547 89.45999908447266,16.540000915527344 C89.572998046875,16.88800048828125 89.68499755859375,17.232999801635742 89.7959976196289,17.579999923706055 M81.05000305175781,2.0299999713897705 C81.05000305175781,2.0299999713897705 81.19000244140625,2.130000114440918 81.19000244140625,2.130000114440918 C81.19000244140625,2.130000114440918 81.51000213623047,2.3499999046325684 81.51000213623047,2.3499999046325684 C81.51000213623047,2.3499999046325684 82.47000122070312,3.0299999713897705 82.47000122070312,3.0299999713897705 C82.66999816894531,3.1700000762939453 82.83000183105469,3.2799999713897705 82.94000244140625,3.359999895095825 C82.94000244140625,3.359999895095825 82.94000244140625,3.359999895095825 82.94000244140625,3.359999895095825 C83.19999694824219,3.5399999618530273 83.45999908447266,3.7300000190734863 83.7300033569336,3.9100000858306885 C84.04000091552734,4.119999885559082 84.36000061035156,4.340000152587891 84.66999816894531,4.559999942779541 C84.66999816894531,4.559999942779541 84.98999786376953,4.789999961853027 84.98999786376953,4.789999961853027 C84.98999786376953,4.789999961853027 85.16999816894531,4.920000076293945 85.16999816894531,4.920000076293945 C85.25800323486328,4.984000205993652 85.33300018310547,5.041999816894531 85.40599822998047,5.0929999351501465"></path></g><g opacity="1" transform="matrix(0.75,0,0,0.75,0,0)"><path stroke-linecap="round" stroke-linejoin="round" fill-opacity="0" stroke="rgb(0,0,0)" stroke-opacity="1" stroke-width="1.4" d=" M83.01000213623047,6.710000038146973 C83.08999633789062,6.679999828338623 83.37000274658203,6.590000152587891 83.86000061035156,6.429999828338623 C83.86000061035156,6.429999828338623 83.87000274658203,6.429999828338623 83.87000274658203,6.429999828338623 C84.37000274658203,6.269999980926514 84.87999725341797,6.110000133514404 85.37999725341797,5.940000057220459 C85.37999725341797,5.940000057220459 85.51000213623047,5.900000095367432 85.51000213623047,5.900000095367432 C85.51000213623047,5.900000095367432 85.51000213623047,5.900000095367432 85.51000213623047,5.900000095367432 C85.57599639892578,5.88100004196167 85.63899993896484,5.861999988555908 85.7020034790039,5.8429999351501465 M81.16999816894531,2.059999942779541 C81.22000122070312,2.1600000858306885 81.2300033569336,2.2200000286102295 81.23999786376953,2.2300000190734863 C81.62000274658203,3.0999999046325684 82.01000213623047,3.9800000190734863 82.38999938964844,4.849999904632568 C82.57599639892578,5.284999847412109 82.76300048828125,5.718999862670898 82.9489974975586,6.146999835968018"></path></g><g opacity="1" transform="matrix(0.75,0,0,0.75,0,0)"><path stroke-linecap="round" stroke-linejoin="round" fill-opacity="0" stroke="rgb(0,0,0)" stroke-opacity="1" stroke-width="0.7" d=" M81.2300033569336,11.300000190734863 C81.2300033569336,11.300000190734863 81.3499984741211,11.319999694824219 81.3499984741211,11.319999694824219 C81.37999725341797,11.369999885559082 81.4000015258789,11.390000343322754 81.4000015258789,11.399999618530273 C81.41000366210938,11.430000305175781 81.52999877929688,11.869999885559082 81.80000305175781,12.739999771118164 C81.80699920654297,12.746999740600586 81.81400299072266,12.756999969482422 81.8239974975586,12.770000457763672 M79.19000244140625,12.149999618530273 C79.19000244140625,12.140000343322754 79.27999877929688,11.970000267028809 79.30999755859375,11.880000114440918 C79.3499984741211,11.760000228881836 79.4000015258789,11.630000114440918 79.47000122070312,11.520000457763672 C79.55000305175781,11.430000305175781 79.66000366210938,11.359999656677246 79.7699966430664,11.319999694824219 C79.83999633789062,11.289999961853027 79.91000366210938,11.279999732971191 79.9800033569336,11.279999732971191 C80.05999755859375,11.289999961853027 80.13999938964844,11.300000190734863 80.20999908447266,11.34000015258789 C80.2300033569336,11.350000381469727 80.25,11.369999885559082 80.27999877929688,11.399999618530273 C80.27999877929688,11.399999618530273 80.27999877929688,11.399999618530273 80.27999877929688,11.399999618530273 C80.30999755859375,11.4399995803833 80.33000183105469,11.470000267028809 80.3499984741211,11.510000228881836 C80.37999725341797,11.5600004196167 80.38999938964844,11.609999656677246 80.4000015258789,11.65999984741211 C80.4000015258789,11.65999984741211 80.4000015258789,11.65999984741211 80.4000015258789,11.65999984741211 C80.41000366210938,11.699999809265137 80.41000366210938,11.75 80.4000015258789,11.789999961853027 C80.38999938964844,11.850000381469727 80.38999938964844,11.899999618530273 80.37999725341797,11.949999809265137 C80.36000061035156,12.029999732971191 80.27999877929688,12.170000076293945 80.13999938964844,12.380000114440918 C80.0469970703125,12.520000457763672 79.86499786376953,12.722000122070312 79.70899963378906,12.876999855041504 M78.9800033569336,11.760000228881836 C78.9800033569336,11.760000228881836 79.04000091552734,11.829999923706055 79.04000091552734,11.829999923706055 C79.05999755859375,11.869999885559082 79.11000061035156,11.960000038146973 79.16000366210938,12.130000114440918 C79.20999908447266,12.300000190734863 79.27999877929688,12.529999732971191 79.37000274658203,12.829999923706055 C79.45600128173828,13.118000030517578 79.56099700927734,13.470000267028809 79.69300079345703,13.895999908447266"></path></g><g opacity="1" transform="matrix(0.75,0,0,0.75,0,0)"><path stroke-linecap="round" stroke-linejoin="round" fill-opacity="0" stroke="rgb(0,0,0)" stroke-opacity="1" stroke-width="0.7" d=" M84.66999816894531,9.720000267028809 C84.66999816894531,9.720000267028809 84.66999816894531,9.729999542236328 84.66999816894531,9.729999542236328 C84.61000061035156,9.720000267028809 84.55000305175781,9.729999542236328 84.48999786376953,9.75 C84.47000122070312,9.760000228881836 84.44999694824219,9.770000457763672 84.43000030517578,9.789999961853027 C84.38999938964844,9.819999694824219 84.36000061035156,9.850000381469727 84.31999969482422,9.890000343322754 C84.26000213623047,9.949999809265137 84.20999908447266,10.020000457763672 84.16999816894531,10.100000381469727 C84.11000061035156,10.210000038146973 84.08000183105469,10.350000381469727 84.06999969482422,10.470000267028809 C84.05000305175781,10.59000015258789 84.05999755859375,10.710000038146973 84.08000183105469,10.829999923706055 C84.11000061035156,10.930000305175781 84.16000366210938,11.010000228881836 84.2300033569336,11.09000015258789 C84.30000305175781,11.15999984741211 84.37999725341797,11.229999542236328 84.47000122070312,11.260000228881836 C84.56999969482422,11.300000190734863 84.66999816894531,11.300000190734863 84.7699966430664,11.289999961853027 C84.87999725341797,11.279999732971191 85.0199966430664,11.210000038146973 85.19000244140625,11.100000381469727 C85.26899719238281,11.04699993133545 85.34300231933594,10.991999626159668 85.41500091552734,10.9350004196167 M82.98999786376953,10.770000457763672 C82.98999786376953,10.770000457763672 83.11000061035156,10.8100004196167 83.11000061035156,10.8100004196167 C83.12999725341797,10.829999923706055 83.19000244140625,10.899999618530273 83.2699966430664,11.039999961853027 C83.34100341796875,11.164999961853027 83.61299896240234,11.944999694824219 83.83399963378906,12.35200023651123 M81.30000305175781,11.350000381469727 C81.3499984741211,11.359999656677246 81.58999633789062,11.5 81.69000244140625,11.539999961853027 C81.7750015258789,11.574000358581543 83.12799835205078,12.163000106811523 83.65699768066406,12.388999938964844"></path></g><g opacity="1" transform="matrix(0.75,0,0,0.75,0,0)"><path stroke-linecap="round" stroke-linejoin="round" fill-opacity="0" stroke="rgb(0,0,0)" stroke-opacity="1" stroke-width="0.7" d=" M85.05000305175781,10.539999961853027 C85.05000305175781,10.539999961853027 85.13999938964844,10.479999542236328 85.13999938964844,10.479999542236328 C85.22000122070312,10.430000305175781 85.31999969482422,10.399999618530273 85.41000366210938,10.399999618530273 C85.43000030517578,10.399999618530273 85.44999694824219,10.399999618530273 85.47000122070312,10.40999984741211 C85.5,10.420000076293945 85.52999877929688,10.4399995803833 85.55000305175781,10.460000038146973 C85.55000305175781,10.460000038146973 85.62000274658203,10.520000457763672 85.62000274658203,10.520000457763672 C85.63999938964844,10.539999961853027 85.66999816894531,10.59000015258789 85.73999786376953,10.6899995803833 C85.7959976196289,10.784000396728516 85.7300033569336,11.086999893188477 86.02400207519531,11.755999565124512"></path></g><g opacity="1" transform="matrix(0.75,0,0,0.75,0,0)"><path stroke-linecap="round" stroke-linejoin="round" fill-opacity="0" stroke="rgb(0,0,0)" stroke-opacity="1" stroke-width="1.4" d=" M113.9800033569336,14.710000038146973 C113.9800033569336,14.710000038146973 114.13999938964844,14.710000038146973 114.13999938964844,14.710000038146973 C114.13999938964844,14.710000038146973 114.13999938964844,14.710000038146973 114.13999938964844,14.710000038146973 C114.01000213623047,14.680000305175781 113.87000274658203,14.65999984741211 113.73999786376953,14.640000343322754 C113.55000305175781,14.600000381469727 113.36000061035156,14.569999694824219 113.16999816894531,14.539999961853027 C113.02999877929688,14.510000228881836 112.91000366210938,14.5 112.7699966430664,14.470000267028809 C112.62999725341797,14.4399995803833 112.44000244140625,14.40999984741211 112.19000244140625,14.369999885559082 C111.98999786376953,14.34000015258789 111.80000305175781,14.300000190734863 111.5999984741211,14.260000228881836 C111.5999984741211,14.260000228881836 111.54000091552734,14.248000144958496 111.46900177001953,14.234000205993652 M115.6500015258789,9.670000076293945 C115.6500015258789,9.670000076293945 115.58999633789062,9.829999923706055 115.58999633789062,9.829999923706055 C115.58999633789062,9.829999923706055 115.3499984741211,10.65999984741211 115.3499984741211,10.65999984741211 C115.19000244140625,11.210000038146973 115.05999755859375,11.649999618530273 114.95999908447266,11.989999771118164 C114.86000061035156,12.319999694824219 114.77999877929688,12.609999656677246 114.72000122070312,12.819999694824219 C114.72000122070312,12.819999694824219 114.56999969482422,13.319999694824219 114.56999969482422,13.319999694824219 C114.56999969482422,13.319999694824219 114.47000122070312,13.6899995803833 114.47000122070312,13.6899995803833 C114.43699645996094,13.789999961853027 114.3759994506836,13.993000030517578 114.28700256347656,14.293999671936035 M115.52999877929688,9.420000076293945 C115.52999877929688,9.420000076293945 115.69999694824219,9.430000305175781 115.69999694824219,9.430000305175781 C115.69999694824219,9.430000305175781 116.06999969482422,9.449999809265137 116.06999969482422,9.449999809265137 C116.06999969482422,9.449999809265137 116.81999969482422,9.489999771118164 116.81999969482422,9.489999771118164 C117.08999633789062,9.510000228881836 117.33999633789062,9.520000457763672 117.56999969482422,9.539999961853027 C117.56999969482422,9.539999961853027 118.48999786376953,9.600000381469727 118.48999786376953,9.600000381469727 C118.48999786376953,9.600000381469727 118.5,9.600000381469727 118.5,9.600000381469727 C119.43000030517578,9.65999984741211 120.3499984741211,9.739999771118164 121.27999877929688,9.84000015258789 C121.83000183105469,9.899999618530273 122.37000274658203,9.960000038146973 122.91999816894531,10.029999732971191 C123.02999877929688,10.039999961853027 123.08999633789062,10.050000190734863 123.11000061035156,10.0600004196167 C123.12999725341797,10.069999694824219 123.25,10.079999923706055 123.44999694824219,10.100000381469727 C123.552001953125,10.114999771118164 123.63500213623047,10.126999855041504 123.7020034790039,10.137999534606934 M111.30000305175781,14.029999732971191 C111.30000305175781,14.029999732971191 111.91000366210938,13.319999694824219 111.91000366210938,13.319999694824219 C112.25,12.920000076293945 112.54000091552734,12.600000381469727 112.75,12.359999656677246 C113.16000366210938,11.899999618530273 113.55999755859375,11.4399995803833 113.97000122070312,10.989999771118164 C113.97000122070312,10.989999771118164 114.30000305175781,10.640000343322754 114.30000305175781,10.640000343322754 C114.30000305175781,10.640000343322754 114.70999908447266,10.1899995803833 114.70999908447266,10.1899995803833 C114.81999969482422,10.069999694824219 114.9000015258789,9.970000267028809 114.95999908447266,9.90999984741211 C114.95999908447266,9.90999984741211 115.01499938964844,9.850000381469727 115.04299926757812,9.817999839782715 M108.16999816894531,27.950000762939453 C108.19000244140625,27.860000610351562 108.2699966430664,27.850000381469727 108.36000061035156,27.280000686645508 C108.44999694824219,26.709999084472656 108.54000091552734,26.190000534057617 108.62000274658203,25.739999771118164 C108.69999694824219,25.290000915527344 108.7699966430664,24.8700008392334 108.83999633789062,24.459999084472656 C108.83999633789062,24.459999084472656 108.98999786376953,23.6200008392334 108.98999786376953,23.6200008392334 C108.98999786376953,23.6200008392334 108.98999786376953,23.6200008392334 108.98999786376953,23.6200008392334 C109.16000366210938,22.760000228881836 109.33000183105469,21.899999618530273 109.51000213623047,21.040000915527344 C109.5999984741211,20.59000015258789 109.69999694824219,20.139999389648438 109.80000305175781,19.690000534057617 C110.08999633789062,18.489999771118164 110.38999938964844,17.280000686645508 110.70999908447266,16.09000015258789 C110.70999908447266,16.09000015258789 110.80999755859375,15.739999771118164 110.80999755859375,15.739999771118164 C110.86199951171875,15.541999816894531 110.91500091552734,15.343999862670898 110.96900177001953,15.145999908447266 M116.81999969482422,29.770000457763672 C116.72000122070312,29.75 116.83000183105469,29.829999923706055 116.79000091552734,29.81999969482422 C116.79000091552734,29.81999969482422 116.79000091552734,29.81999969482422 116.79000091552734,29.81999969482422 C116.44000244140625,29.739999771118164 116.08999633789062,29.670000076293945 115.73999786376953,29.600000381469727 C115.73999786376953,29.600000381469727 115.37999725341797,29.530000686645508 115.37999725341797,29.530000686645508 C114.56999969482422,29.3799991607666 113.76000213623047,29.229999542236328 112.95999908447266,29.06999969482422 C112.95999908447266,29.06999969482422 112.36000061035156,28.959999084472656 112.36000061035156,28.959999084472656 C112.36000061035156,28.959999084472656 111.73999786376953,28.850000381469727 111.73999786376953,28.850000381469727 C111.12999725341797,28.729999542236328 110.52999877929688,28.6200008392334 109.91999816894531,28.510000228881836 C109.56700134277344,28.44300079345703 109.21299743652344,28.368000030517578 108.86000061035156,28.29199981689453 M124.29000091552734,10.319999694824219 C124.29000091552734,10.319999694824219 124.12999725341797,10.680000305175781 124.12999725341797,10.680000305175781 C124.12999725341797,10.680000305175781 123.75,11.569999694824219 123.75,11.569999694824219 C123.75,11.569999694824219 123.30999755859375,12.59000015258789 123.30999755859375,12.59000015258789 C123.30999755859375,12.59000015258789 122.80999755859375,13.739999771118164 122.80999755859375,13.739999771118164 C122.5999984741211,14.229999542236328 122.38999938964844,14.729999542236328 122.18000030517578,15.239999771118164 C121.97000122070312,15.75 121.80000305175781,16.1299991607666 121.69000244140625,16.399999618530273 C121.69000244140625,16.399999618530273 121.33999633789062,17.239999771118164 121.33999633789062,17.239999771118164 C120.87000274658203,18.389999389648438 120.4000015258789,19.540000915527344 119.94000244140625,20.700000762939453 C119.5,21.81999969482422 119.06999969482422,22.940000534057617 118.66000366210938,24.06999969482422 C118.58000183105469,24.309999465942383 118.45999908447266,24.6299991607666 118.31999969482422,25.030000686645508 C118.18000030517578,25.43000030517578 118.05000305175781,25.799999237060547 117.94000244140625,26.1200008392334 C117.83000183105469,26.450000762939453 117.7300033569336,26.729999542236328 117.66000366210938,26.959999084472656 C117.66000366210938,26.959999084472656 117.44000244140625,27.610000610351562 117.44000244140625,27.610000610351562 C117.41500091552734,27.684999465942383 117.35800170898438,27.874000549316406 117.28500366210938,28.117000579833984"></path></g><g opacity="1" transform="matrix(0.75,0,0,0.75,0,0)"><path stroke-linecap="round" stroke-linejoin="round" fill-opacity="0" stroke="rgb(0,0,0)" stroke-opacity="1" stroke-width="0.7" d=" M114.7699966430664,17.809999465942383 C114.72000122070312,17.780000686645508 114.66999816894531,17.75 114.62000274658203,17.729999542236328 C114.56999969482422,17.709999084472656 114.52999877929688,17.690000534057617 114.4800033569336,17.670000076293945 C114.41999816894531,17.649999618530273 114.36000061035156,17.65999984741211 114.30000305175781,17.649999618530273 C114.18000030517578,17.649999618530273 114.05999755859375,17.65999984741211 113.94999694824219,17.690000534057617 C113.77999877929688,17.739999771118164 113.61000061035156,17.81999969482422 113.47000122070312,17.93000030517578 C113.30999755859375,18.040000915527344 113.16999816894531,18.18000030517578 113.05999755859375,18.34000015258789 C112.95999908447266,18.469999313354492 112.88999938964844,18.6200008392334 112.83999633789062,18.780000686645508 C112.80000305175781,18.899999618530273 112.77999877929688,19.030000686645508 112.77999877929688,19.15999984741211 C112.77999877929688,19.280000686645508 112.80999755859375,19.40999984741211 112.8499984741211,19.520000457763672 C112.9000015258789,19.6299991607666 112.95999908447266,19.739999771118164 113.04000091552734,19.829999923706055 C113.12000274658203,19.920000076293945 113.20999908447266,19.989999771118164 113.30999755859375,20.040000915527344 C113.41000366210938,20.09000015258789 113.56999969482422,20.110000610351562 113.7699966430664,20.110000610351562 C113.88500213623047,20.115999221801758 114.03399658203125,20.104000091552734 114.21399688720703,20.075000762939453"></path></g><g opacity="1" transform="matrix(0.75,0,0,0.75,0,0)"><path stroke-linecap="round" stroke-linejoin="round" fill-opacity="0" stroke="rgb(0,0,0)" stroke-opacity="1" stroke-width="0.7" d=" M118.56999969482422,19.450000762939453 C118.16000366210938,19.190000534057617 117.66999816894531,19.209999084472656 117.20999908447266,19.280000686645508 C117.01000213623047,19.31999969482422 116.81999969482422,20.459999084472656 116.76000213623047,20.670000076293945 C116.76000213623047,20.670000076293945 116.7699966430664,20.65999984741211 116.7699966430664,20.65999984741211 C116.73400115966797,20.79199981689453 116.70099639892578,20.924999237060547 116.6729965209961,21.05699920654297 M116.06999969482422,18.709999084472656 C116.06999969482422,18.709999084472656 116.04000091552734,18.760000228881836 116.04000091552734,18.760000228881836 C116.0199966430664,18.790000915527344 115.875,19.506000518798828 115.61299896240234,20.917999267578125 M114.0999984741211,19.139999389648438 C114.0999984741211,19.139999389648438 114.12000274658203,19.1200008392334 114.12000274658203,19.1200008392334 C114.16999816894531,19.09000015258789 114.3499984741211,19.139999389648438 114.66000366210938,19.260000228881836 C114.66999816894531,19.31999969482422 114.68000030517578,19.459999084472656 114.68000030517578,19.690000534057617 C114.68000030517578,19.920000076293945 114.69000244140625,20.139999389648438 114.68000030517578,20.350000381469727 C114.66999816894531,20.549999237060547 114.66999816894531,20.719999313354492 114.68000030517578,20.829999923706055 C114.68299865722656,20.857999801635742 114.68499755859375,20.885000228881836 114.68800354003906,20.909000396728516"></path></g><g opacity="1" transform="matrix(0.75,0,0,0.75,0,0)"><path stroke-linecap="round" stroke-linejoin="round" fill-opacity="0" stroke="rgb(0,0,0)" stroke-opacity="1" stroke-width="0.7" d=" M116.83999633789062,20.510000228881836 C116.87999725341797,20.510000228881836 116.87000274658203,20.5 117.05999755859375,20.530000686645508 C117.24099731445312,20.55900001525879 117.35800170898438,20.52400016784668 117.89399719238281,20.55500030517578"></path></g><g opacity="1" transform="matrix(0.75,0,0,0.75,0,0)"><path stroke-linecap="round" stroke-linejoin="round" fill-opacity="0" stroke="rgb(0,0,0)" stroke-opacity="1" stroke-width="1.4" d=" M103.08000183105469,29.940000534057617 C103.08000183105469,29.940000534057617 103.13999938964844,30.920000076293945 103.13999938964844,30.920000076293945 C103.13999938964844,30.920000076293945 103.20999908447266,32.150001525878906 103.20999908447266,32.150001525878906 C103.2300033569336,32.439998626708984 103.25,32.77000045776367 103.2699966430664,33.150001525878906 C103.2699966430664,33.150001525878906 103.30000305175781,33.790000915527344 103.30000305175781,33.790000915527344 C103.30000305175781,33.790000915527344 103.3499984741211,34.68000030517578 103.3499984741211,34.68000030517578 C103.3499984741211,34.68000030517578 103.3499984741211,34.68000030517578 103.3499984741211,34.68000030517578 C103.41999816894531,35.90999984741211 103.4800033569336,37.150001525878906 103.54000091552734,38.380001068115234 C103.54000091552734,38.380001068115234 103.58000183105469,39.2400016784668 103.58000183105469,39.2400016784668 C103.58000183105469,39.2400016784668 103.56999969482422,39.2400016784668 103.56999969482422,39.2400016784668 C103.58000183105469,39.5 103.5999984741211,39.75 103.61000061035156,40.0099983215332 C103.61000061035156,40.0099983215332 103.62300109863281,40.30799865722656 103.62799835205078,40.41899871826172 M100.1500015258789,26.739999771118164 C100.20999908447266,26.809999465942383 100.25,26.850000381469727 100.26000213623047,26.860000610351562 C100.2699966430664,26.860000610351562 100.37000274658203,26.979999542236328 100.58000183105469,27.239999771118164 C100.58000183105469,27.239999771118164 101.13999938964844,27.90999984741211 101.13999938964844,27.90999984741211 C101.13999938964844,27.90999984741211 101.58999633789062,28.440000534057617 101.58999633789062,28.440000534057617 C101.81999969482422,28.709999084472656 102.05000305175781,28.969999313354492 102.2699966430664,29.239999771118164 C102.2699966430664,29.239999771118164 102.72000122070312,29.780000686645508 102.72000122070312,29.780000686645508 C102.72000122070312,29.780000686645508 102.7300033569336,29.790000915527344 102.7300033569336,29.790000915527344 C102.76200103759766,29.82900047302246 102.79100036621094,29.86400032043457 102.81900024414062,29.898000717163086"></path></g><g opacity="1" transform="matrix(0.75,0,0,0.75,0,0)"><path stroke-linecap="round" stroke-linejoin="round" fill-opacity="0" stroke="rgb(0,0,0)" stroke-opacity="1" stroke-width="1.4" d=" M100.22000122070312,26.829999923706055 C100.22000122070312,26.829999923706055 100.22000122070312,26.84000015258789 100.22000122070312,26.84000015258789 C100.16000366210938,26.84000015258789 100.11000061035156,26.829999923706055 100.05000305175781,26.829999923706055 C100.05000305175781,26.829999923706055 99.69999694824219,26.829999923706055 99.69999694824219,26.829999923706055 C99.69999694824219,26.829999923706055 99.69999694824219,26.829999923706055 99.69999694824219,26.829999923706055 C99.51000213623047,26.829999923706055 99.33000183105469,26.829999923706055 99.1500015258789,26.829999923706055 C98.8499984741211,26.84000015258789 98.54000091552734,26.829999923706055 98.23999786376953,26.84000015258789 C98.23999786376953,26.84000015258789 97.68000030517578,26.84000015258789 97.68000030517578,26.84000015258789 C97.68000030517578,26.84000015258789 96.91999816894531,26.84000015258789 96.91999816894531,26.84000015258789 C96.91999816894531,26.84000015258789 96.91999816894531,26.84000015258789 96.91999816894531,26.84000015258789 C96.33000183105469,26.84000015258789 95.7300033569336,26.84000015258789 95.13999938964844,26.84000015258789 C95,26.84000015258789 94.8499984741211,26.850000381469727 94.70999908447266,26.850000381469727 C94.70999908447266,26.850000381469727 94.36000061035156,26.850000381469727 94.36000061035156,26.850000381469727 C94.36000061035156,26.850000381469727 94.37000274658203,26.850000381469727 94.37000274658203,26.850000381469727 C94.1969985961914,26.860000610351562 94.01399993896484,26.860000610351562 93.83999633789062,26.860000610351562 M103.69000244140625,41.22999954223633 C103.69000244140625,41.22999954223633 103.29000091552734,41.310001373291016 103.29000091552734,41.310001373291016 C103.29000091552734,41.310001373291016 103.29000091552734,41.310001373291016 103.29000091552734,41.310001373291016 C102.94999694824219,41.380001068115234 102.5999984741211,41.45000076293945 102.26000213623047,41.52000045776367 C101.66000366210938,41.63999938964844 101.05000305175781,41.77000045776367 100.44999694824219,41.88999938964844 C100.02999877929688,41.970001220703125 99.62000274658203,42.04999923706055 99.19999694824219,42.130001068115234 C99.19999694824219,42.130001068115234 98.81999969482422,42.209999084472656 98.81999969482422,42.209999084472656 C98.81999969482422,42.209999084472656 98.44000244140625,42.290000915527344 98.44000244140625,42.290000915527344 C97.94200134277344,42.39099884033203 97.4530029296875,42.48400115966797 96.95700073242188,42.58399963378906"></path></g><g opacity="1" transform="matrix(0.75,0,0,0.75,0,0)"><path stroke-linecap="round" stroke-linejoin="round" fill-opacity="0" stroke="rgb(0,0,0)" stroke-opacity="1" stroke-width="1.4" d=" M100.88999938964844,30.959999084472656 C100.88999938964844,30.959999084472656 102.28900146484375,30.676000595092773 102.75900268554688,30.58099937438965 M99.66000366210938,27.25 C99.9280014038086,28.416000366210938 100.47100067138672,29.540000915527344 100.48699951171875,30.74799919128418 M93.31999969482422,26.84000015258789 C93.33999633789062,26.950000762939453 93.38999938964844,27 93.4800033569336,27.459999084472656 C93.61000061035156,28.18000030517578 93.73999786376953,28.920000076293945 93.87999725341797,29.639999389648438 C93.87999725341797,29.639999389648438 93.9800033569336,30.219999313354492 93.9800033569336,30.219999313354492 C94.31999969482422,32.11000061035156 94.68000030517578,33.9900016784668 95.02999877929688,35.869998931884766 C95.11000061035156,36.31999969482422 95.22000122070312,36.869998931884766 95.33999633789062,37.529998779296875 C95.55999755859375,38.709999084472656 95.80000305175781,39.88999938964844 96.0199966430664,41.06999969482422 C96.04399871826172,41.185001373291016 96.06700134277344,41.30099868774414 96.08999633789062,41.41699981689453"></path></g><g opacity="1" transform="matrix(0.75,0,0,0.75,0,0)"><path stroke-linecap="round" stroke-linejoin="round" fill-opacity="0" stroke="rgb(0,0,0)" stroke-opacity="1" stroke-width="0.6" d=" M99.2300033569336,35.11000061035156 C99.2300033569336,35.11000061035156 99.2699966430664,35.16999816894531 99.2699966430664,35.16999816894531 C99.2699966430664,35.18000030517578 99.29000091552734,35.27000045776367 99.33000183105469,35.439998626708984 C99.36699676513672,35.5989990234375 99.447998046875,35.93199920654297 99.5979995727539,36.42399978637695 M96.3499984741211,35.36000061035156 C96.3499984741211,35.36000061035156 96.33999633789062,35.40999984741211 96.33999633789062,35.40999984741211 C96.33999633789062,35.40999984741211 96.37000274658203,35.970001220703125 96.37000274658203,35.970001220703125 C96.37000274658203,35.970001220703125 96.37000274658203,36.2400016784668 96.37000274658203,36.2400016784668 C96.37999725341797,36.2400016784668 96.38999938964844,36.209999084472656 96.4000015258789,36.15999984741211 C96.41000366210938,36.099998474121094 96.41000366210938,36.060001373291016 96.41999816894531,36.0099983215332 C96.41999816894531,36.0099983215332 96.41000366210938,36.0099983215332 96.41000366210938,36.0099983215332 C96.41999816894531,35.959999084472656 96.44000244140625,35.90999984741211 96.45999908447266,35.86000061035156 C96.4800033569336,35.83000183105469 96.4800033569336,35.79999923706055 96.5,35.77000045776367 C96.55000305175781,35.70000076293945 96.61000061035156,35.63999938964844 96.68000030517578,35.599998474121094 C96.69000244140625,35.599998474121094 96.70999908447266,35.599998474121094 96.72000122070312,35.59000015258789 C96.7300033569336,35.58000183105469 96.80000305175781,35.599998474121094 96.91999816894531,35.63999938964844 C97.04000091552734,35.68000030517578 97.16000366210938,35.720001220703125 97.27999877929688,35.7599983215332 C97.4000015258789,35.79999923706055 97.47000122070312,35.81999969482422 97.48999786376953,35.83000183105469 C97.51000213623047,35.83000183105469 97.54000091552734,35.790000915527344 97.58999633789062,35.720001220703125 C97.63999938964844,35.650001525878906 97.66999816894531,35.599998474121094 97.69999694824219,35.54999923706055 C97.7300033569336,35.5 97.76000213623047,35.45000076293945 97.80000305175781,35.38999938964844 C97.83999633789062,35.33000183105469 97.93000030517578,35.25 98.06999969482422,35.150001525878906 C98.1050033569336,35.14099884033203 98.14800262451172,35.672000885009766 98.61100006103516,36.4109992980957"></path></g><g opacity="1" transform="matrix(0.75,0,0,0.75,0,0)"><path stroke-linecap="round" stroke-linejoin="round" fill-opacity="0" stroke="rgb(0,0,0)" stroke-opacity="1" stroke-width="0.6" d=" M101.43000030517578,34.65999984741211 C101.38999938964844,34.70000076293945 100.95999908447266,35.20000076293945 100.75,35.68000030517578 C100.75,35.689998626708984 100.81999969482422,35.709999084472656 100.97000122070312,35.7400016784668 C101.12000274658203,35.77000045776367 101.25,35.779998779296875 101.36000061035156,35.77000045776367 C101.4800033569336,35.7599983215332 101.58999633789062,35.7400016784668 101.69999694824219,35.720001220703125 C101.80999755859375,35.689998626708984 101.87999725341797,35.66999816894531 101.93000030517578,35.650001525878906 C101.93000030517578,35.650001525878906 101.93599700927734,35.650001525878906 101.93900299072266,35.650001525878906 M99.23999786376953,35.099998474121094 C99.27999877929688,35.08000183105469 99.54000091552734,34.97999954223633 99.63999938964844,34.939998626708984 C99.7300033569336,34.90999984741211 99.81999969482422,34.88999938964844 99.91999816894531,34.88999938964844 C99.98999786376953,34.880001068115234 100.05999755859375,34.900001525878906 100.12000274658203,34.93000030517578 C100.16999816894531,34.959999084472656 100.19999694824219,34.97999954223633 100.20999908447266,35.0099983215332 C100.22000122070312,35.040000915527344 100.22000122070312,35.06999969482422 100.20999908447266,35.099998474121094 C100.19999694824219,35.13999938964844 100.2699966430664,35.31999969482422 100.20999908447266,35.40999984741211 C100.1510009765625,35.49800109863281 99.9280014038086,35.750999450683594 99.67400360107422,35.902000427246094"></path></g><g opacity="1" transform="matrix(0.75,0,0,0.75,0,0)"><path stroke-linecap="round" stroke-linejoin="round" fill-opacity="0" stroke="rgb(0,0,0)" stroke-opacity="1" stroke-width="0.6" d=" M96.41000366210938,35.81999969482422 C96.4000015258789,35.93000030517578 96.4000015258789,35.9900016784668 96.38999938964844,36.0099983215332 C96.38999938964844,36.0099983215332 96.38999938964844,36.02000045776367 96.38999938964844,36.02000045776367 C96.37999725341797,36.08000183105469 96.37000274658203,36.150001525878906 96.36000061035156,36.209999084472656 C96.3499984741211,36.279998779296875 96.36000061035156,36.36000061035156 96.3499984741211,36.43000030517578 C96.33999633789062,36.470001220703125 96.33999633789062,36.5 96.33999633789062,36.529998779296875 C96.3499984741211,36.560001373291016 96.3499984741211,36.59000015258789 96.33999633789062,36.619998931884766 C96.33499908447266,36.645999908447266 96.33499908447266,36.672000885009766 96.33599853515625,36.698001861572266 M101.44000244140625,34.65999984741211 C101.44000244140625,34.65999984741211 101.44000244140625,34.72999954223633 101.44000244140625,34.72999954223633 C101.44000244140625,34.72999954223633 101.44000244140625,34.72999954223633 101.44000244140625,34.72999954223633 C101.45999908447266,34.81999969482422 101.4800033569336,34.93000030517578 101.5,35.02000045776367 C101.5199966430664,35.15999984741211 101.54000091552734,35.310001373291016 101.56999969482422,35.5 C101.61299896240234,35.792999267578125 101.63400268554688,36.11600112915039 101.7030029296875,36.4109992980957"></path></g><g opacity="1" transform="matrix(0.75,0,0,0.75,0,0)"><path stroke-linecap="round" stroke-linejoin="round" fill-opacity="0" stroke="rgb(0,0,0)" stroke-opacity="1" stroke-width="1.4" d=" M71.01000213623047,24.639999389648438 C71.01000213623047,24.639999389648438 73.2959976196289,23.7810001373291 74.06199645996094,23.493000030517578 M69.37000274658203,21.34000015258789 C69.37000274658203,21.34000015258789 69.43000030517578,21.459999084472656 69.43000030517578,21.459999084472656 C69.43000030517578,21.459999084472656 69.44000244140625,21.459999084472656 69.44000244140625,21.459999084472656 C69.44000244140625,21.459999084472656 69.58000183105469,21.75 69.58000183105469,21.75 C69.58000183105469,21.75 69.80000305175781,22.18000030517578 69.80000305175781,22.18000030517578 C69.80000305175781,22.18000030517578 69.79000091552734,22.18000030517578 69.79000091552734,22.18000030517578 C69.95999908447266,22.510000228881836 70.12999725341797,22.850000381469727 70.29000091552734,23.18000030517578 C70.43000030517578,23.479999542236328 70.56999969482422,23.770000457763672 70.72000122070312,24.059999465942383 C70.7300033569336,24.06999969482422 70.77999877929688,24.170000076293945 70.87999725341797,24.3700008392334 C70.9010009765625,24.408000946044922 70.9209976196289,24.44300079345703 70.93900299072266,24.47599983215332 M70.41000366210938,20.969999313354492 C70.41000366210938,20.969999313354492 70.2300033569336,21.010000228881836 70.2300033569336,21.010000228881836 C70.2300033569336,21.010000228881836 69.79000091552734,21.100000381469727 69.79000091552734,21.100000381469727 C69.79000091552734,21.100000381469727 69.01000213623047,21.270000457763672 69.01000213623047,21.270000457763672 C68.33999633789062,21.420000076293945 67.6500015258789,21.559999465942383 66.9800033569336,21.709999084472656 C66.31999969482422,21.850000381469727 65.66999816894531,22 65.0199966430664,22.149999618530273 C64.62000274658203,22.239999771118164 64.22000122070312,22.329999923706055 63.81999969482422,22.420000076293945 C63.470001220703125,22.5 63.119998931884766,22.56999969482422 62.77000045776367,22.649999618530273 C62.77000045776367,22.649999618530273 62.715999603271484,22.663000106811523 62.64899826049805,22.679000854492188 M74.27999877929688,23.299999237060547 C74.27999877929688,23.299999237060547 74.01000213623047,23.139999389648438 74.01000213623047,23.139999389648438 C73.63999938964844,22.940000534057617 73.27999877929688,22.709999084472656 72.93000030517578,22.479999542236328 C72.93000030517578,22.479999542236328 72.18000030517578,21.989999771118164 72.18000030517578,21.989999771118164 C71.87000274658203,21.790000915527344 71.56999969482422,21.600000381469727 71.26000213623047,21.40999984741211 C71.12000274658203,21.31999969482422 70.97000122070312,21.229999542236328 70.81999969482422,21.149999618530273 C70.80999755859375,21.139999389648438 70.80999755859375,21.149999618530273 70.80000305175781,21.139999389648438 C70.7760009765625,21.125999450683594 70.75199890136719,21.113000869750977 70.72799682617188,21.10099983215332 M79.0999984741211,33.70000076293945 C79.0999984741211,33.70000076293945 79.01000213623047,33.5099983215332 79.01000213623047,33.5099983215332 C78.72000122070312,32.900001525878906 78.41999816894531,32.290000915527344 78.12999725341797,31.68000030517578 C78.12999725341797,31.68000030517578 77.62000274658203,30.6299991607666 77.62000274658203,30.6299991607666 C77.41000366210938,30.190000534057617 77.20999908447266,29.760000228881836 77,29.31999969482422 C77,29.31999969482422 76.76000213623047,28.799999237060547 76.76000213623047,28.799999237060547 C76.76000213623047,28.799999237060547 76.76000213623047,28.790000915527344 76.76000213623047,28.790000915527344 C76.5,28.25 76.25,27.719999313354492 76,27.18000030517578 C76,27.18000030517578 75.80000305175781,26.739999771118164 75.80000305175781,26.739999771118164 C75.80000305175781,26.739999771118164 75.80000305175781,26.739999771118164 75.80000305175781,26.739999771118164 C75.4229965209961,25.922000885009766 75.05500030517578,25.104000091552734 74.68699645996094,24.27899932861328 M71.22000122070312,37.220001220703125 C71.22000122070312,37.220001220703125 71.72000122070312,37.029998779296875 71.72000122070312,37.029998779296875 C71.95999908447266,36.939998626708984 72.27999877929688,36.79999923706055 72.66999816894531,36.63999938964844 C72.66999816894531,36.63999938964844 72.66999816894531,36.63999938964844 72.66999816894531,36.63999938964844 C73.2300033569336,36.40999984741211 73.77999877929688,36.16999816894531 74.33000183105469,35.939998626708984 C74.69999694824219,35.779998779296875 75.06999969482422,35.630001068115234 75.44999694824219,35.47999954223633 C75.91999816894531,35.279998779296875 76.4000015258789,35.08000183105469 76.87000274658203,34.880001068115234 C77.30000305175781,34.70000076293945 77.7300033569336,34.5099983215332 78.16000366210938,34.31999969482422 C78.31700134277344,34.25400161743164 78.4729995727539,34.180999755859375 78.62999725341797,34.112998962402344 M61.97999954223633,22.850000381469727 C61.97999954223633,22.850000381469727 62.130001068115234,23.079999923706055 62.130001068115234,23.079999923706055 C62.130001068115234,23.079999923706055 62.56999969482422,23.790000915527344 62.56999969482422,23.790000915527344 C62.56999969482422,23.790000915527344 63.290000915527344,24.90999984741211 63.290000915527344,24.90999984741211 C63.790000915527344,25.709999084472656 64.29000091552734,26.5 64.80000305175781,27.299999237060547 C64.80000305175781,27.299999237060547 65.05999755859375,27.709999084472656 65.05999755859375,27.709999084472656 C65.05999755859375,27.709999084472656 65.26000213623047,28.020000457763672 65.26000213623047,28.020000457763672 C65.26000213623047,28.020000457763672 65.83999633789062,28.940000534057617 65.83999633789062,28.940000534057617 C65.83999633789062,28.940000534057617 65.83999633789062,28.940000534057617 65.83999633789062,28.940000534057617 C66.22000122070312,29.540000915527344 66.5999984741211,30.139999389648438 66.9800033569336,30.739999771118164 C66.9800033569336,30.739999771118164 67.2699966430664,31.190000534057617 67.2699966430664,31.190000534057617 C67.33000183105469,31.290000915527344 67.48999786376953,31.530000686645508 67.7300033569336,31.920000076293945 C67.7300033569336,31.920000076293945 68.16000366210938,32.58000183105469 68.16000366210938,32.58000183105469 C68.16000366210938,32.58000183105469 68.56999969482422,33.220001220703125 68.56999969482422,33.220001220703125 C68.56999969482422,33.220001220703125 68.55999755859375,33.220001220703125 68.55999755859375,33.220001220703125 C69.02999877929688,33.95000076293945 69.51000213623047,34.689998626708984 69.9800033569336,35.41999816894531 C70.14600372314453,35.67499923706055 70.30599975585938,35.93299865722656 70.46700286865234,36.189998626708984"></path></g><g opacity="1" transform="matrix(0.75,0,0,0.75,0,0)"><path stroke-linecap="round" stroke-linejoin="round" fill-opacity="0" stroke="rgb(0,0,0)" stroke-opacity="1" stroke-width="0.7" d=" M70.61000061035156,27.860000610351562 C70.62000274658203,27.8700008392334 70.63999938964844,27.899999618530273 70.63999938964844,27.93000030517578 C70.63999938964844,27.93000030517578 70.63999938964844,27.93000030517578 70.63999938964844,27.93000030517578 C70.7699966430664,28.219999313354492 70.91000366210938,28.5 71.06999969482422,28.780000686645508 C71.18000030517578,28.959999084472656 71.29000091552734,29.139999389648438 71.38999938964844,29.31999969482422 C71.41999816894531,29.3700008392334 71.45999908447266,29.450000762939453 71.52999877929688,29.540000915527344 C71.52999877929688,29.540000915527344 71.53199768066406,29.54199981689453 71.53500366210938,29.54599952697754 M68.26000213623047,28.5 C68.33999633789062,28.510000228881836 69.2699966430664,27.729999542236328 69.69000244140625,28.290000915527344 C69.69000244140625,28.290000915527344 69.69000244140625,28.290000915527344 69.69000244140625,28.290000915527344 C69.75,28.360000610351562 69.80000305175781,28.440000534057617 69.83000183105469,28.530000686645508 C69.8499984741211,28.600000381469727 69.8499984741211,28.690000534057617 69.83000183105469,28.790000915527344 C69.83000183105469,28.790000915527344 69.83999633789062,28.790000915527344 69.83999633789062,28.790000915527344 C69.81999969482422,28.889999389648438 69.79000091552734,29 69.75,29.09000015258789 C69.69999694824219,29.200000762939453 69.62000274658203,29.309999465942383 69.54000091552734,29.399999618530273 C69.47000122070312,29.479999542236328 69.4000015258789,29.540000915527344 69.31999969482422,29.600000381469727 C69.29900360107422,29.613000869750977 69.24800109863281,29.643999099731445 69.19100189208984,29.680999755859375 M68.20999908447266,28.530000686645508 C68.20999908447266,28.530000686645508 68.2300033569336,28.559999465942383 68.2300033569336,28.559999465942383 C68.26000213623047,28.600000381469727 68.37999725341797,28.799999237060547 68.58000183105469,29.149999618530273 C68.58000183105469,29.149999618530273 68.58000183105469,29.15999984741211 68.58000183105469,29.15999984741211 C68.80000305175781,29.549999237060547 69.0199966430664,29.920000076293945 69.2300033569336,30.31999969482422 C69.2300033569336,30.31999969482422 69.31999969482422,30.459999084472656 69.31999969482422,30.459999084472656 C69.33999633789062,30.489999771118164 69.3499984741211,30.510000228881836 69.37000274658203,30.540000915527344 C69.37999725341797,30.549999237060547 69.38999938964844,30.56999969482422 69.41000366210938,30.600000381469727 C69.41699981689453,30.610000610351562 69.4260025024414,30.62700080871582 69.43900299072266,30.64900016784668"></path></g><g opacity="1" transform="matrix(0.75,0,0,0.75,0,0)"><path stroke-linecap="round" stroke-linejoin="round" fill-opacity="0" stroke="rgb(0,0,0)" stroke-opacity="1" stroke-width="0.7" d=" M74.06999969482422,26.34000015258789 C74.04000091552734,26.34000015258789 73.3499984741211,26.43000030517578 73,26.780000686645508 C73,26.780000686645508 73.04000091552734,26.8799991607666 73.04000091552734,26.8799991607666 C73.05000305175781,26.89900016784668 73.31300354003906,27.434999465942383 73.83000183105469,28.496000289916992 M70.61000061035156,27.84000015258789 C71.5999984741211,27.219999313354492 71.83999633789062,27.399999618530273 71.93000030517578,27.40999984741211 C71.93000030517578,27.40999984741211 72.16999816894531,27.549999237060547 72.16999816894531,27.549999237060547 C72.29000091552734,27.6200008392334 72.4000015258789,27.709999084472656 72.4800033569336,27.799999237060547 C72.4800033569336,27.799999237060547 72.4800033569336,27.799999237060547 72.4800033569336,27.799999237060547 C72.6500015258789,27.979999542236328 72.7300033569336,28.229999542236328 72.69999694824219,28.469999313354492 C72.69100189208984,28.589000701904297 72.71499633789062,28.791000366210938 71.8759994506836,29.46299934387207"></path></g><g opacity="1" transform="matrix(0.75,0,0,0.75,0,0)"><path stroke-linecap="round" stroke-linejoin="round" fill-opacity="0" stroke="rgb(0,0,0)" stroke-opacity="1" stroke-width="0.7" d=" M73.52999877929688,27.639999389648438 C73.73999786376953,27.549999237060547 73.81999969482422,27.440000534057617 73.91999816894531,27.389999389648438 C74.00199890136719,27.349000930786133 74.01699829101562,27.347999572753906 74.08100128173828,27.32699966430664"></path></g></g></g></g></svg>